# xmcd
#
# Track frame offsets:
#	150
#	38379
#	58218
#	95193
#	118013
#	148273
#	187700
#
# Disc length: 2989 seconds
#
# Revision: 0
# Processed by: cddbd v1.5.2PL0 Copyright (c) Steve Scherf et al.
# Submitted via: EasyCDDAExtractor 9.0.0.1
#
DISCID=5f0bab07
DTITLE=Heaven And Hell - HP Pavillion San Josè CA 24-04-07 Master Disc 1
DYEAR=2007
DGENRE=Hard Rock
TTITLE0=E5150 - After All (The Dead)
TTITLE1=The Mob Rules
TTITLE2=Children Of The Sea
TTITLE3=Lady Evil
TTITLE4=I
TTITLE5=The Sign Of The Southern Cross
TTITLE6=Voodoo
EXTD=
EXTT0=
EXTT1=
EXTT2=
EXTT3=
EXTT4=
EXTT5=
EXTT6=
PLAYORDER=
